<svg t="1641170585086" class="icon" viewBox="0 0 1024 1024" version="1.1" xmlns="http://www.w3.org/2000/svg" p-id="5816" width="200" height="200"><path d="M512 512m-512 0a512 512 0 1 0 1024 0 512 512 0 1 0-1024 0Z" p-id="5817"></path><path d="M518.272 442.88a83.84 83.84 0 1 1-83.84 83.84 83.968 83.968 0 0 1 83.84-83.84z m92.16-100.48a228.352 228.352 0 0 0-92.16-20.992H488.96l-12.8-67.072A46.592 46.592 0 0 0 455.424 166.4 43.008 43.008 0 0 0 409.6 208.256a46.464 46.464 0 0 0 46.08 46.08l12.8 67.072a224.896 224.896 0 0 0-92.16 54.4l-29.312-25.6v-8.32a24.192 24.192 0 0 0-25.6-25.6 27.008 27.008 0 0 0-25.6 25.6 27.008 27.008 0 0 0 25.6 25.6h8.32l29.312 25.6a208.64 208.64 0 0 0-41.856 79.616h-20.864a35.584 35.584 0 0 0-33.536-29.312 33.024 33.024 0 0 0-33.536 33.536 36.48 36.48 0 0 0 25.6 33.536c16.768 4.224 29.312-4.224 41.856-16.768l20.992 4.224v25.6a183.68 183.68 0 0 0 25.6 96.384l-100.48 62.848a47.616 47.616 0 0 0-33.536-12.8 46.08 46.08 0 1 0 46.08 46.08 15.36 15.36 0 0 0-4.224-12.8L350.72 640c4.224 8.32 12.8 16.768 20.992 29.312a259.456 259.456 0 0 0 71.168 46.08l-25.6 75.392a33.536 33.536 0 1 0 33.536 33.536 38.4 38.4 0 0 0-12.8-29.312l25.6-75.392a221.184 221.184 0 0 0 54.4 4.224h25.6v12.8a27.776 27.776 0 0 0-8.32 29.312 26.496 26.496 0 0 0 25.6 20.992 24.192 24.192 0 0 0 25.6-25.6 26.496 26.496 0 0 0-20.992-25.6v-12.8a199.68 199.68 0 0 0 92.16-50.304l54.4 54.4a51.2 51.2 0 0 0 4.224 54.4 44.416 44.416 0 0 0 54.4 12.8 55.552 55.552 0 0 0 33.536-46.08 46.464 46.464 0 0 0-46.08-46.08 59.52 59.52 0 0 0-25.6 8.32l-59.264-53.888a210.816 210.816 0 0 0 50.304-121.472h71.168a40.32 40.32 0 0 0 37.76 25.6 35.584 35.584 0 0 0 29.312-33.536 34.048 34.048 0 0 0-67.072-8.32h-71.168a192 192 0 0 0-50.304-130.304l113.152-108.928c4.224 4.224 8.32 4.224 16.768 4.224a34.176 34.176 0 0 0 33.536-37.76 33.024 33.024 0 0 0-33.536-33.536 35.328 35.328 0 0 0-29.312 16.768 31.616 31.616 0 0 0-4.224 33.536L656.512 371.2a142.208 142.208 0 0 0-25.6-25.6l29.312-54.4h4.224a33.536 33.536 0 1 0-33.536-33.536 59.52 59.52 0 0 0 8.32 25.6c0-4.224-29.312 58.624-29.312 58.624z m0 0" fill="#FFFFFF" p-id="5818"></path></svg>