<svg t="1637573793109" class="icon" viewBox="0 0 1025 1024" version="1.1" xmlns="http://www.w3.org/2000/svg" p-id="2550" width="128" height="128"><path d="M813.663974 214.977877c-39.51818-39.51818-85.607026-70.118151-136.985779-90.954266-49.613744-20.118439-102.032665-30.319454-155.79889-30.319454s-106.184122 10.201014-155.79889 30.319454c-51.378753 20.836114-97.467599 51.436085-136.984755 90.955289-39.51818 39.51818-70.120199 85.606002-90.954266 136.984755-20.119463 49.614768-30.320477 102.032665-30.320477 155.79889 0 53.767248 10.201014 106.185145 30.320477 155.799914 20.83509 51.378753 51.436085 97.466575 90.954266 136.984755 39.51818 39.519204 85.607026 70.120199 136.984755 90.955289 49.613744 20.119463 102.032665 30.320477 155.79889 30.320477s106.185145-10.201014 155.79889-30.320477c51.378753-20.83509 97.467599-51.436085 136.985779-90.955289 39.51818-39.51818 70.119175-85.606002 90.954266-136.985779 20.119463-49.613744 30.320477-102.031641 30.320477-155.79889 0-53.766225-10.201014-106.184122-30.320477-155.797866C883.784173 300.585926 853.182154 254.497081 813.663974 214.977877zM779.5002 766.38344c-69.080031 69.080031-160.927039 107.123958-258.619871 107.123958s-189.53984-38.043927-258.619871-107.123958c-142.604322-142.604322-142.604322-374.637467 0-517.240766 69.080031-69.080031 160.926015-107.123958 258.619871-107.123958s189.53984 38.043927 258.619871 107.122934C922.103498 391.746997 922.103498 623.779118 779.5002 766.38344z" p-id="2551"></path><path d="M385.14357 500.10769c34.211892 0 66.375186-13.322541 90.567274-37.514629 49.939309-49.938285 49.939309-131.195239 0-181.134548-24.191064-24.192088-56.355382-37.514629-90.567274-37.514629-34.211892 0-66.37621 13.322541-90.567274 37.514629-49.939309 49.938285-49.939309 131.195239 0 181.134548C318.76736 486.786172 350.931678 500.10769 385.14357 500.10769zM316.293891 303.177131c18.390287-18.390287 42.842417-28.517588 68.849679-28.517588 26.007262 0 50.459392 10.128325 68.849679 28.517588 37.964071 37.964071 37.964071 99.735287 0 137.699359-18.390287 18.390287-42.842417 28.517588-68.849679 28.517588-26.008286 0-50.459392-10.128325-68.849679-28.517588C278.329819 402.912418 278.329819 341.141203 316.293891 303.177131z" p-id="2552"></path><path d="M656.617088 515.417401c-34.211892 0-66.37621 13.322541-90.567274 37.514629-49.939309 49.938285-49.939309 131.196263 0 181.135572 24.191064 24.191064 56.355382 37.513605 90.567274 37.513605 34.211892 0 66.375186-13.322541 90.567274-37.513605 49.939309-49.938285 49.939309-131.196263 0-181.135572C722.992274 528.739942 690.82898 515.417401 656.617088 515.417401zM725.466767 712.350007c-18.390287 18.390287-42.842417 28.516565-68.849679 28.516565-26.008286 0-50.459392-10.127302-68.849679-28.516565-37.964071-37.964071-37.964071-99.736311 0-137.700382 18.390287-18.390287 42.842417-28.517588 68.849679-28.517588 26.007262 0 50.459392 10.128325 68.849679 28.517588C763.429815 612.613696 763.429815 674.385936 725.466767 712.350007z" p-id="2553"></path><path d="M385.14357 515.417401c-34.211892 0-66.37621 13.322541-90.567274 37.514629-49.939309 49.938285-49.939309 131.196263 0 181.135572 24.191064 24.191064 56.355382 37.513605 90.567274 37.513605 34.211892 0 66.375186-13.322541 90.567274-37.513605 49.939309-49.938285 49.939309-131.196263 0-181.135572C451.51978 528.739942 419.355462 515.417401 385.14357 515.417401zM453.993249 712.350007c-18.390287 18.390287-42.842417 28.516565-68.849679 28.516565-26.008286 0-50.459392-10.127302-68.849679-28.516565-37.964071-37.964071-37.964071-99.736311 0-137.700382 18.390287-18.390287 42.842417-28.517588 68.849679-28.517588 26.007262 0 50.459392 10.128325 68.849679 28.517588C491.957321 612.613696 491.957321 674.385936 453.993249 712.350007z" p-id="2554"></path><path d="M656.617088 243.944907c-34.211892 0-66.37621 13.322541-90.567274 37.514629-49.939309 49.938285-49.939309 131.195239 0 181.134548 24.191064 24.192088 56.355382 37.514629 90.567274 37.514629 34.211892 0 66.375186-13.322541 90.567274-37.514629 49.939309-49.938285 49.939309-131.195239 0-181.134548C722.992274 257.267448 690.82898 243.944907 656.617088 243.944907zM625.618863 464.376498c-9.31851-3.117432-18.118983-7.653832-26.141379-13.49249l135.984515-135.984515c5.898037 8.130917 10.371987 16.974389 13.444372 26.19052L625.618863 464.376498zM587.766385 303.177131c16.557708-16.557708 38.029594-26.412682 61.12623-28.213524l-89.263993 89.263993C561.402844 341.95409 570.766401 320.178139 587.766385 303.177131zM564.328828 402.962584l123.286484-123.286484c9.31851 3.118455 18.118983 7.653832 26.142402 13.49249l-135.984515 135.984515C571.874138 421.023211 567.401213 412.178715 564.328828 402.962584zM725.466767 440.87649c-16.557708 16.557708-38.029594 26.412682-61.12623 28.213524l89.263993-89.263993C751.830307 402.099531 742.466751 423.875482 725.466767 440.87649z" p-id="2555"></path></svg>