<svg t="1641171897846" class="icon" viewBox="0 0 1024 1024" version="1.1" xmlns="http://www.w3.org/2000/svg" p-id="7336" width="200" height="200"><path d="M509.44 32c177.152 0 320 146.432 320 326.144 0 125.44-70.08 238.08-178.688 292.736l-2.816 1.408-81.984 80.128a80 80 0 0 1-112 0L373.568 653.44l-2.88-1.408C260.672 597.952 189.44 484.48 189.44 358.144 189.44 178.432 332.352 32 509.44 32z m0 96c-122.24 0-224 101.632-224 230.144 0 90.112 50.752 169.984 127.552 207.744l16.704 8.256 80.32 78.72 81.472-79.68 16.128-8.128a230.784 230.784 0 0 0 125.888-206.912C733.44 229.632 631.68 128 509.44 128z m-40.832 96.64a32 32 0 0 1 27.712-16.896l71.68-1.024a16 16 0 0 1 14.208 23.744L541.504 304l70.464 1.152a16 16 0 0 1 12.672 25.408L501.504 498.688a32 32 0 0 1-25.856 13.056h-10.88a16 16 0 0 1-14.72-22.336l51.84-120.128H417.664a16 16 0 0 1-14.08-23.616L468.608 224.64z m323.52 359.424l96 64a48 48 0 0 1 19.904 28.288l64 256a48 48 0 0 1-46.528 59.648h-832a48 48 0 0 1-46.592-59.648l64-256a48 48 0 0 1 19.968-28.288l96-64 53.248 79.872-80.64 53.76-4.48 18.304H349.44a48 48 0 0 1 37.44 17.984L500.544 896H864l-16-64H637.44v-96h186.56l-4.608-18.368-80.512-53.696 53.248-79.872zM326.4 832H170.944l-16 64h222.72l-51.2-64z" p-id="7337"></path></svg>