<svg t="1641172037901" class="icon" viewBox="0 0 1024 1024" version="1.1" xmlns="http://www.w3.org/2000/svg" p-id="10767" width="200" height="200"><path d="M509.852592 225.220485c196.981327 0 359.699292 149.34847 380.822378 340.770173-78.877465-42.773176-176.831404-25.599028-236.450246 41.462321a193.507202 193.507202 0 0 0-144.343479-64.798819 193.309704 193.309704 0 0 0-144.376225 64.798819 193.45399 193.45399 0 0 0-144.376225-64.798819c-33.028231 0-64.519456 8.422833-92.128257 23.366174 21.12411-191.393052 183.866634-340.798826 380.880707-340.798826h-0.028653z m0-65.665559c-247.936859 0-448.938756 200.997803-448.938756 448.794469 0 33.004695 3.790326 64.99734 10.535961 95.952352h25.89681c14.542204-56.461943 65.426105-95.942119 123.729999-96.003517 58.307987 0.057305 109.202121 39.537482 123.753535 96.003517h41.263799c14.557554-56.467059 65.445548-95.947236 123.758652-96.003517 58.303894 0.066515 109.192911 39.546691 123.757628 96.003517h41.259706c14.547321-56.472176 65.445548-95.956446 123.758652-96.003517 58.303894 0.066515 109.191888 39.546691 123.757628 96.003517h25.839505c6.740518-30.896684 10.535961-62.947657 10.535961-95.952352 0.002047-247.796666-201.000873-448.794469-448.90908-448.794469z m0 0" p-id="10768"></path><path d="M544.37178 95.483678a32.076556 32.076556 0 1 0-64.153112 0v101.593839h64.153112v-101.593839z m-64.153112 769.259178c-0.515746 17.35425-14.730493 31.153534-32.092929 31.153534-17.358343 0-31.577183-13.799284-32.087813-31.153534v-32.048926H351.826486v32.020274a96.172363 96.172363 0 0 0 96.230691 96.144734 96.195899 96.195899 0 0 0 96.284927-96.116082V704.46957h-64.153112v160.273286h0.029676z m0 0" p-id="10769"></path></svg>