<svg t="1637566468166" class="icon" viewBox="0 0 1029 1024" version="1.1" xmlns="http://www.w3.org/2000/svg" p-id="10978" width="128" height="128"><path d="M522.699104 447.905792a140.557742 140.557742 0 1 1-140.557742-140.557743 140.801766 140.801766 0 0 1 140.557742 140.557743z m201.441695-6.466633a73.207157 73.207157 0 1 0 73.817217 73.207158 73.939229 73.939229 0 0 0-73.817217-73.207158zM544.661251 642.880854A90.410839 90.410839 0 1 0 634.462031 733.291694a90.288827 90.288827 0 0 0-90.288827-90.41084z m115.423285-322.721552A25.134457 25.134457 0 1 0 634.462031 345.293759a25.134457 25.134457 0 0 0 25.134457-25.134457zM332.482507 718.284226a30.014935 30.014935 0 1 0 29.892922 29.892923 29.526887 29.526887 0 0 0-29.892922-29.892923z m103.10008-494.880384a20.375992 20.375992 0 1 0-20.742028-20.25398 20.25398 20.25398 0 0 0 20.375992 20.25398z m549.05368 249.636407a41.72808 41.72808 0 1 1 0 83.334147h-44.046306a418.256893 418.256893 0 0 1-30.99103 123.476073l50.268915 28.794815 1.098107 0.61006A41.484056 41.484056 0 0 1 919.237873 780.876346h-1.098107l-48.0727-27.81872A421.795239 421.795239 0 0 1 780.876346 849.203026l31.479078 53.685249a41.362044 41.362044 0 1 1-71.621003 41.606068l-28.794815-50.146903a418.134881 418.134881 0 0 1-160.445687 46.852581v43.802282a41.240032 41.240032 0 0 1-82.358052 0h0.61006v-44.412342a425.333585 425.333585 0 0 1-155.56521-47.584652l-29.892922 51.85507A41.362044 41.362044 0 0 1 212.178745 902.888275l32.577185-56.735547a432.288265 432.288265 0 0 1-87.604565-97.609543l-48.0727 28.550791a41.484056 41.484056 0 1 1-41.72808-71.621002l50.756962-29.404875a413.254404 413.254404 0 0 1-29.404875-120.79181H41.72808a41.72808 41.72808 0 0 1 0-83.334147h46.486545a419.110976 419.110976 0 0 1 35.261447-132.016908l-45.998497-26.720612a41.484056 41.484056 0 1 1 41.72808-71.621002l45.388437 26.842624a424.723525 424.723525 0 0 1 102.612033-102.612032l-27.81872-47.584653a41.484056 41.484056 0 1 1 71.621002-41.728079l27.81872 48.0727a423.381394 423.381394 0 0 1 129.820692-35.871508V41.72808a41.72808 41.72808 0 0 1 83.45616 0v46.486545a420.575119 420.575119 0 0 1 138.971587 36.603578l27.20866-47.584652a1.708167 1.708167 0 0 1 0-1.098107 41.484056 41.484056 0 1 1 71.621003 41.728079l-27.696708 48.072701a424.967549 424.967549 0 0 1 104.198187 105.784342l52.343118-30.136946a1.708167 1.708167 0 0 1 0.976095 0 41.362044 41.362044 0 1 1 41.72808 71.49899l-1.098107 0.61006-53.441225 30.99103a424.357489 424.357489 0 0 1 33.187244 128.234537zM514.646317 894.713476a379.823135 379.823135 0 1 0-313.69267-593.832059l-28.916827 50.268915a380.311183 380.311183 0 0 0 342.609497 543.563144z" fill="#BFCBD9" p-id="10979"></path></svg>